<?xml version="1.0" encoding="UTF-8"?>
<svg id="Logo" xmlns="http://www.w3.org/2000/svg" viewBox="0 0 438.57 72">
  <defs>
    <style>
      .cls-1 {
        fill: #140f4b;
      }
    </style>
  </defs>
  <path id="Wordmark" class="cls-1" d="M397.93,45.45c0-14.91,10.83-26.55,26.96-26.55,4.6,0,9.8,1.12,13.69,3.27v11.23h-.31c-3.98-2.35-7.97-3.47-12.46-3.47-9.7,0-14.91,6.64-14.91,15.52s5.21,15.52,14.91,15.52c4.49,0,8.48-1.12,12.46-3.47h.31v11.23c-3.88,2.14-9.09,3.27-13.69,3.27-16.14,0-26.96-11.64-26.96-26.55M396.7,70.98c-1.94.41-4.19.71-6.23.71-9.7,0-14.91-5.11-14.91-14.5V19.92h12.77v36.36c0,3.37,1.63,5,5.11,5,.82,0,1.84-.1,2.96-.31h.3v10.01ZM389.65,7.46c0,4.09-3.27,7.56-7.56,7.56s-7.46-3.47-7.46-7.56,3.37-7.46,7.46-7.46c4.29,0,7.56,3.37,7.56,7.46M332.67,42.49c0-7.86,3.98-12.97,11.34-12.97s10.62,4.8,10.62,12.97v28.49h12.66v-29c0-12.26-6.33-23.08-20.12-23.08-7.35,0-12.26,3.68-15.01,9.19v-8.17h-12.15v51.06h12.66v-28.49ZM286.47,61.07c9.09,0,13.79-6.64,13.79-15.63s-4.7-15.63-13.79-15.63-13.89,6.64-13.89,15.63,5,15.63,13.89,15.63M286.47,72c-16.04,0-26.86-11.64-26.86-26.55s10.83-26.55,26.86-26.55,26.76,11.64,26.76,26.55-10.83,26.55-26.76,26.55M242.35,44.22c0-8.27,4.29-12.87,12.46-12.87,1.43,0,2.96.2,4.39.61h.21v-11.85c-1.33-.51-3.06-.82-5.01-.82-6.13,0-10.21,3.78-12.56,9.91v-9.29h-12.15v51.06h12.66v-26.76ZM158.3,61.28c8.58,0,13.38-6.64,13.38-15.93s-4.8-15.83-13.38-15.83-13.17,6.64-13.17,15.83,4.49,15.93,13.17,15.93M216.21,72c-11.74,0-18.38-5.41-18.38-17.67v-24.1h-14.09v25.63c0,3.78,1.43,5.31,4.49,5.31.71,0,1.53,0,2.45-.2h.31v10.01c-1.23.31-3.68.61-5.52.61-6.94,0-11.23-2.65-13.07-8.48-3.68,5.72-9.5,8.89-16.75,8.89-12.97,0-23.49-10.11-23.49-26.66s10.52-26.45,23.49-26.45c6.43,0,11.74,2.45,15.42,6.94V.51h12.67v19.4h14.09V7.76h12.66v12.15h13.58v10.31h-13.58v23.49c0,5.11,2.55,7.56,7.46,7.56,2.25,0,3.78-.2,5.82-.71h.31v10.42c-2.45.61-5.41,1.02-7.87,1.02M0,70.98h12.56l2.35-44.02.51-11.95h.2l2.66,11.95,10.21,44.02h15.73l10.32-44.02,2.55-11.95h.2l.51,11.95,2.45,44.02h13.07L69.04.51h-20.83l-9.4,42.28-2.04,10.72h-.2l-2.15-10.72L25.02.51H4.19L0,70.98ZM127.36,44.53c0,2.45-.21,5-.61,7.05h-36.77c1.33,6.13,6.54,9.91,16.34,9.91.04,0,.09,0,.13,0,.03,0,.07,0,.1,0,.62,0,1.22-.02,1.82-.05.32-.02.65-.04.97-.07.25-.02.5-.04.75-.07,4.08-.41,7.96-1.51,11.53-3.18.28-.14.57-.27.84-.41h0c.72-.36,1.42-.76,2.12-1.17h.31v10.34c-5.38,3.25-11.69,5.13-18.44,5.13v-.02c-.25,0-.49.02-.74.02-18.49,0-28.6-10.52-28.6-25.84,0-16.44,10.42-27.27,25.53-27.27s24.72,10.72,24.72,25.63ZM115.3,41.67c-.61-7.66-4.6-12.15-12.66-12.15-7.46,0-12.05,4.7-12.87,12.15h25.53Z"/>
</svg>